<svg data-v-fde0c5aa="" xmlns="http://www.w3.org/2000/svg" viewBox="0 0 300 300" class="font"><!----><defs data-v-fde0c5aa=""><linearGradient data-v-fde0c5aa="" gradientTransform="rotate(25)" id="26621760-f3f5-4c27-bad8-9e112294e653" x1="0%" y1="0%" x2="100%" y2="0%"><stop data-v-fde0c5aa="" offset="0%" stop-color="#2B2B2A" stop-opacity="1"></stop><stop data-v-fde0c5aa="" offset="100%" stop-color="#565450" stop-opacity="1"></stop></linearGradient></defs><rect data-v-fde0c5aa="" fill="url(#26621760-f3f5-4c27-bad8-9e112294e653)" x="0" y="0" width="300px" height="300px" class="logo-background-square"></rect><defs data-v-fde0c5aa=""><linearGradient data-v-fde0c5aa="" gradientTransform="rotate(25)" id="d49c3a52-f19b-4a5a-adfd-6471f3cd7a61" x1="0%" y1="0%" x2="100%" y2="0%"><stop data-v-fde0c5aa="" offset="0%" stop-color="#FFFFFF" stop-opacity="1"></stop><stop data-v-fde0c5aa="" offset="100%" stop-color="#FFFFFF" stop-opacity="1"></stop></linearGradient></defs><g data-v-fde0c5aa="" id="64e93a72-2f11-42d0-bac8-b5b6e0e1bafa" fill="url(#d49c3a52-f19b-4a5a-adfd-6471f3cd7a61)" transform="matrix(3.2698734419509763,0,0,3.2698734419509763,40.03269873673394,123.0535789187926)"><path d="M2.58 10.81L2.58 10.81L2.58 9.67L2.58 9.67Q4.21 10.01 5.21 8.74L5.21 8.74L5.21 8.74Q6.21 7.46 6.30 6.26L6.30 6.26L6.30 6.26Q6.40 5.06 5.49 4.26L5.49 4.26L5.49 4.26Q4.58 3.47 3.57 3.60L3.57 3.60L1.20 3.60L0.45 4.79L0.05 5.29L0.25 5.52L0.80 4.88L2.27 4.89L2.27 4.89Q1.42 5.39 1.38 5.77L1.38 5.77L1.37 10.73L1.37 10.73Q1.11 12.00-0.01 12.69L-0.01 12.69L0.09 12.90L0.09 12.90Q0.57 12.63 2.54 12.71L2.54 12.71L3.55 11.35L3.55 11.35Q3.15 11.55 1.65 11.50L1.65 11.50L1.65 11.50Q2.41 11.15 2.58 10.81ZM2.83 7.94L2.56 8.31L2.53 4.87L2.53 4.87Q3.81 4.78 4.44 5.23L4.44 5.23L4.44 5.23Q5.08 5.69 5.36 6.79L5.36 6.79L5.36 6.79Q5.63 7.89 4.84 8.37L4.84 8.37L4.84 8.37Q4.04 8.85 2.83 7.94L2.83 7.94ZM8.68 6.60L8.68 6.60L8.68 6.60Q8.33 6.77 7.57 7.54L7.57 7.54L7.57 7.54Q6.80 8.31 6.66 9.52L6.66 9.52L6.66 9.52Q6.52 10.73 7.35 11.70L7.35 11.70L7.35 11.70Q8.17 12.67 8.79 12.75L8.79 12.75L8.79 12.75Q9.41 12.82 9.88 12.39L9.88 12.39L9.88 12.39Q10.35 11.96 10.96 10.90L10.96 10.90L10.96 10.90Q11.57 9.84 11.46 8.90L11.46 8.90L11.46 8.90Q11.35 7.96 10.69 7.30L10.69 7.30L10.69 7.30Q10.04 6.65 9.53 6.54L9.53 6.54L9.53 6.54Q9.03 6.43 8.68 6.60ZM8.35 7.67L8.35 7.67L8.35 7.67Q9.00 7.57 9.71 8.30L9.71 8.30L9.71 8.30Q10.42 9.03 10.51 9.85L10.51 9.85L10.51 9.85Q10.60 10.67 10.26 11.09L10.26 11.09L10.26 11.09Q9.92 11.50 9.25 11.43L9.25 11.43L9.25 11.43Q8.59 11.35 8.03 10.31L8.03 10.31L8.03 10.31Q7.48 9.27 7.58 8.52L7.58 8.52L7.58 8.52Q7.69 7.78 8.35 7.67ZM17.01 8.16L17.01 8.16Q17.89 7.30 18.62 8.25L18.62 8.25L18.62 8.25Q19.35 9.20 19.33 10.06L19.33 10.06L19.33 10.06Q19.30 10.91 18.73 11.42L18.73 11.42L18.73 11.42Q18.25 11.30 16.93 8.23L16.93 8.23L16.81 7.99L16.25 6.77L16.25 6.77Q15.85 6.34 15.47 6.81L15.47 6.81L14.18 8.09L13.58 6.77L13.58 6.77Q13.19 6.28 12.80 6.79L12.80 6.79L11.64 8.22L11.82 8.35L11.82 8.35Q12.30 7.75 12.54 8.23L12.54 8.23L14.35 11.98L14.35 11.98Q14.86 13.38 15.83 12.15L15.83 12.15L16.72 11.32L16.56 11.05L16.03 11.44L16.03 11.44Q15.63 11.89 14.29 8.35L14.29 8.35L14.29 8.35Q14.98 7.75 15.21 8.23L15.21 8.23L17.19 12.04L17.19 12.04Q17.71 13.33 18.43 12.20L18.43 12.20L18.43 12.20Q20.41 10.21 20.54 9.26L20.54 9.26L20.54 9.26Q20.67 8.31 19.97 7.36L19.97 7.36L19.97 7.36Q19.26 6.41 18.63 6.47L18.63 6.47L18.63 6.47Q18.00 6.53 16.88 7.91L16.88 7.91L17.01 8.16ZM23.42 6.54L23.42 6.54Q22.78 6.79 22.15 7.53L22.15 7.53L22.15 7.53Q20.56 9.04 21.02 10.32L21.02 10.32L21.02 10.32Q21.48 11.59 22.23 12.30L22.23 12.30L22.23 12.30Q22.99 13.02 23.57 12.52L23.57 12.52L23.57 12.52Q24.46 11.89 25.42 10.62L25.42 10.62L25.25 10.47L25.25 10.47Q24.68 11.13 24.20 11.42L24.20 11.42L24.20 11.42Q23.55 11.56 22.88 10.55L22.88 10.55L22.88 10.55Q22.22 9.54 22.11 8.65L22.11 8.65L22.11 8.65Q22.00 7.77 22.56 7.63L22.56 7.63L22.56 7.63Q23.12 7.49 23.40 7.86L23.40 7.86L23.40 7.86Q23.69 8.24 23.57 8.61L23.57 8.61L23.57 8.61Q23.45 8.98 22.96 9.33L22.96 9.33L22.46 9.71L22.66 10.00L24.38 8.63L24.94 8.14L24.94 8.14Q25.05 7.21 24.55 6.84L24.55 6.84L24.55 6.84Q24.04 6.47 23.42 6.54L23.42 6.54ZM26.78 6.54L25.44 8.20L25.62 8.33L25.62 8.33Q26.06 7.75 26.32 7.88L26.32 7.88L26.32 7.88Q26.58 8.00 26.54 8.77L26.54 8.77L26.54 11.55L26.54 11.55Q26.67 12.53 27.38 12.68L27.38 12.68L28.73 11.37L28.63 11.23L28.63 11.23Q27.93 11.67 27.92 11.01L27.92 11.01L27.92 8.33L27.92 8.33Q27.97 7.54 28.32 7.51L28.32 7.51L28.32 7.51Q28.68 7.47 29.07 8.21L29.07 8.21L30.22 7.31L30.22 7.31Q29.78 6.63 29.27 6.51L29.27 6.51L29.27 6.51Q28.77 6.39 28.41 6.71L28.41 6.71L28.41 6.71Q28.06 7.03 27.82 7.55L27.82 7.55L27.82 7.55Q27.71 6.67 26.78 6.54L26.78 6.54ZM33.71 3.63L32.52 5.49L32.75 5.58L32.75 5.58Q32.97 5.11 33.45 5.09L33.45 5.09L34.84 5.09L33.89 6.20L33.88 7.17L32.92 8.56L33.02 8.71L33.02 8.71Q33.61 8.25 33.88 8.35L33.88 8.35L33.89 10.68L33.89 10.68Q33.95 11.27 32.68 12.76L32.68 12.76L32.87 12.86L32.87 12.86Q33.16 12.56 35.08 12.70L35.08 12.70L36.20 11.44L34.22 11.42L34.22 11.42Q34.70 11.13 35.13 10.64L35.13 10.64L35.13 8.33L35.93 8.33L37.11 7.13L37.00 6.97L35.17 6.96L35.17 5.06L37.86 5.04L39.09 3.75L39.05 3.62L33.71 3.63ZM40.37 3.80L39.12 4.94L39.12 4.94Q39.87 5.07 39.91 6.04L39.91 6.04L41.19 5.02L41.19 5.02Q41.23 4.12 40.37 3.80L40.37 3.80ZM40.47 6.44L38.79 7.82L38.92 8.07L39.33 7.77L39.33 7.77Q39.70 7.77 39.61 8.80L39.61 8.80L39.61 11.58L39.61 11.58Q39.70 12.58 40.46 12.71L40.46 12.71L41.81 11.40L41.65 11.25L41.27 11.59L41.27 11.59Q40.89 11.57 40.94 10.53L40.94 10.53L40.93 7.64L40.93 7.64Q40.92 6.57 40.47 6.44L40.47 6.44ZM44.78 3.93L44.78 3.93Q44.52 3.99 43.89 4.59L43.89 4.59L43.89 4.59Q43.26 5.20 43.21 5.85L43.21 5.85L43.22 6.50L42.90 6.51L41.92 8.19L42.16 8.35L42.16 8.35Q42.51 7.64 43.25 7.79L43.25 7.79L43.24 11.16L43.24 11.16Q43.45 12.24 44.54 12.77L44.54 12.77L46.31 11.21L46.07 10.89L46.07 10.89Q45.06 12.09 44.51 10.71L44.51 10.71L44.51 9.11L44.51 7.71L45.59 7.71L46.55 6.71L46.48 6.51L44.43 6.51L44.43 6.38L44.43 4.98L44.43 4.98Q44.41 4.58 44.92 4.07L44.92 4.07L44.78 3.93ZM47.96 6.51L46.68 7.80L46.84 8.00L47.24 7.64L47.24 7.64Q47.79 7.67 47.74 8.76L47.74 8.76L47.74 11.57L47.74 11.57Q47.76 12.58 48.55 12.71L48.55 12.71L49.84 11.44L49.70 11.31L49.31 11.64L49.31 11.64Q49.03 11.53 49.06 10.62L49.06 10.62L49.06 8.05L49.57 7.63L49.57 7.63Q50.74 7.59 50.76 9.03L50.76 9.03L50.75 11.54L50.75 11.54Q50.74 12.54 51.52 12.69L51.52 12.69L52.81 11.43L52.68 11.25L52.28 11.62L52.28 11.62Q52.04 11.59 52.05 10.81L52.05 10.81L52.06 8.10L52.06 8.10Q52.04 7.18 51.46 6.79L51.46 6.79L51.46 6.79Q50.89 6.41 50.29 6.51L50.29 6.51L49 7.73L49 7.73Q48.86 6.64 47.96 6.51L47.96 6.51ZM55.60 6.54L55.60 6.54Q54.97 6.79 54.33 7.53L54.33 7.53L54.33 7.53Q52.75 9.04 53.20 10.32L53.20 10.32L53.20 10.32Q53.66 11.59 54.42 12.30L54.42 12.30L54.42 12.30Q55.17 13.02 55.75 12.52L55.75 12.52L55.75 12.52Q56.64 11.89 57.61 10.62L57.61 10.62L57.44 10.47L57.44 10.47Q56.86 11.13 56.38 11.42L56.38 11.42L56.38 11.42Q55.73 11.56 55.07 10.55L55.07 10.55L55.07 10.55Q54.40 9.54 54.29 8.65L54.29 8.65L54.29 8.65Q54.19 7.77 54.75 7.63L54.75 7.63L54.75 7.63Q55.30 7.49 55.59 7.86L55.59 7.86L55.59 7.86Q55.87 8.24 55.75 8.61L55.75 8.61L55.75 8.61Q55.63 8.98 55.15 9.33L55.15 9.33L54.65 9.71L54.84 10.00L56.56 8.63L57.12 8.14L57.12 8.14Q57.24 7.21 56.73 6.84L56.73 6.84L56.73 6.84Q56.23 6.47 55.60 6.54L55.60 6.54ZM60.19 6.40L60.19 6.40L60.19 6.40Q59.68 6.51 59.23 6.80L59.23 6.80L59.23 6.80Q58.78 7.10 58.53 7.39L58.53 7.39L58.53 7.39Q58.28 7.68 58.20 8.27L58.20 8.27L58.20 8.27Q58.13 8.87 58.52 9.30L58.52 9.30L58.52 9.30Q58.91 9.73 60.05 10.02L60.05 10.02L60.05 10.02Q61.20 10.31 61.43 10.59L61.43 10.59L61.43 10.59Q61.67 10.86 61.60 11.13L61.60 11.13L61.60 11.13Q61.53 11.40 61.31 11.50L61.31 11.50L61.31 11.50Q61.09 11.59 60.58 11.52L60.58 11.52L60.58 11.52Q60.07 11.44 59.61 11.19L59.61 11.19L59.61 11.19Q59.14 10.95 58.89 10.66L58.89 10.66L58.89 10.66Q58.65 10.36 58.88 9.98L58.88 9.98L58.80 9.87L57.88 10.81L57.88 10.81Q57.76 11.17 58.12 11.67L58.12 11.67L58.12 11.67Q58.49 12.16 58.99 12.42L58.99 12.42L58.99 12.42Q59.49 12.67 60.11 12.70L60.11 12.70L60.11 12.70Q60.73 12.74 61.13 12.38L61.13 12.38L61.13 12.38Q61.54 12.02 61.97 11.32L61.97 11.32L61.97 11.32Q62.40 10.63 62.38 10.14L62.38 10.14L62.38 10.14Q62.36 9.65 62.00 9.23L62.00 9.23L62.00 9.23Q61.64 8.80 60.40 8.51L60.40 8.51L60.40 8.51Q59.15 8.22 59.04 7.79L59.04 7.79L59.04 7.79Q58.93 7.36 59.44 7.24L59.44 7.24L59.44 7.24Q59.94 7.12 60.52 7.38L60.52 7.38L60.52 7.38Q61.09 7.64 60.66 8.24L60.66 8.24L60.77 8.26L61.80 7.16L61.80 7.16Q61.57 6.72 61.13 6.50L61.13 6.50L61.13 6.50Q60.70 6.29 60.19 6.40ZM65.08 6.40L65.08 6.40L65.08 6.40Q64.57 6.51 64.12 6.80L64.12 6.80L64.12 6.80Q63.67 7.10 63.42 7.39L63.42 7.39L63.42 7.39Q63.16 7.68 63.09 8.27L63.09 8.27L63.09 8.27Q63.02 8.87 63.41 9.30L63.41 9.30L63.41 9.30Q63.80 9.73 64.94 10.02L64.94 10.02L64.94 10.02Q66.08 10.31 66.32 10.59L66.32 10.59L66.32 10.59Q66.56 10.86 66.49 11.13L66.49 11.13L66.49 11.13Q66.42 11.40 66.20 11.50L66.20 11.50L66.20 11.50Q65.97 11.59 65.47 11.52L65.47 11.52L65.47 11.52Q64.96 11.44 64.49 11.19L64.49 11.19L64.49 11.19Q64.03 10.95 63.78 10.66L63.78 10.66L63.78 10.66Q63.53 10.36 63.77 9.98L63.77 9.98L63.69 9.87L62.77 10.81L62.77 10.81Q62.64 11.17 63.01 11.67L63.01 11.67L63.01 11.67Q63.38 12.16 63.88 12.42L63.88 12.42L63.88 12.42Q64.38 12.67 65.00 12.70L65.00 12.70L65.00 12.70Q65.62 12.74 66.02 12.38L66.02 12.38L66.02 12.38Q66.42 12.02 66.86 11.32L66.86 11.32L66.86 11.32Q67.29 10.63 67.27 10.14L67.27 10.14L67.27 10.14Q67.25 9.65 66.89 9.23L66.89 9.23L66.89 9.23Q66.53 8.80 65.28 8.51L65.28 8.51L65.28 8.51Q64.04 8.22 63.93 7.79L63.93 7.79L63.93 7.79Q63.81 7.36 64.32 7.24L64.32 7.24L64.32 7.24Q64.83 7.12 65.41 7.38L65.41 7.38L65.41 7.38Q65.98 7.64 65.55 8.24L65.55 8.24L65.66 8.26L66.69 7.16L66.69 7.16Q66.46 6.72 66.02 6.50L66.02 6.50L66.02 6.50Q65.58 6.29 65.08 6.40Z"></path></g><!----><!----></svg>